<?xml version="1.0" standalone="no"?>
<!DOCTYPE svg PUBLIC "-//W3C//DTD SVG 1.1//EN"
"http://www.w3.org/Graphics/SVG/1.1/DTD/svg11.dtd">

<svg width="699" height="395" view_box="0 0 699 395"
xmlns="http://www.w3.org/2000/svg"
xmlns:link="http://www.w3.org/1999/xlink">\n\n<desc>Généré par Mocodo 2.3.7 le Thu, 02 Dec 2021 01:14:15</desc>

<rect id="frame" x="0" y="0" width="699" height="395" fill="#f7f7f7" stroke="none" stroke-width="0"/>

<!-- Association will learn -->
<line x1="629" y1="211" x2="488" y2="211" stroke="#de77ae" stroke-width="1"/>
<text x="542" y="228.0" fill="#4d9221" font-family="Verdana" font-size="12">1,1</text>
<line x1="337" y1="211" x2="488" y2="211" stroke="#de77ae" stroke-width="1"/>
<text x="377" y="228.0" fill="#4d9221" font-family="Verdana" font-size="12">0,N</text>
<g id="association-will learn">
	<path d="M 512 185 a 14 14 90 0 1 14 14 V 211 h -76 V 199 a 14 14 90 0 1 14 -14" fill="#f1b6da" stroke="#f1b6da" stroke-width="0"/>
	<path d="M 526 211.0 v 12 a 14 14 90 0 1 -14 14 H 464 a 14 14 90 0 1 -14 -14 V 211.0 H 76" fill="#fde0ef" stroke="#fde0ef" stroke-width="0"/>
	<rect x="450" y="185" width="76" height="52" fill="none" rx="14" stroke="#de77ae" stroke-width="1.5"/>
	<line x1="450" y1="211" x2="526" y2="211" stroke="#de77ae" stroke-width="1"/>
	<text x="457" y="203.6" fill="#000000" font-family="Trebuchet MS" font-size="14">will learn</text>
</g>

<!-- Association has certificate -->
<line x1="337" y1="71" x2="191" y2="71" stroke="#de77ae" stroke-width="1"/>
<text x="251" y="88.0" fill="#4d9221" font-family="Verdana" font-size="12">0,N</text>
<line x1="57" y1="71" x2="191" y2="71" stroke="#de77ae" stroke-width="1"/>
<text x="109" y="63.0" fill="#4d9221" font-family="Verdana" font-size="12">0,N</text>
<g id="association-has certificate">
	<path d="M 232 45 a 14 14 90 0 1 14 14 V 71 h -110 V 59 a 14 14 90 0 1 14 -14" fill="#f1b6da" stroke="#f1b6da" stroke-width="0"/>
	<path d="M 246 71.0 v 12 a 14 14 90 0 1 -14 14 H 150 a 14 14 90 0 1 -14 -14 V 71.0 H 110" fill="#fde0ef" stroke="#fde0ef" stroke-width="0"/>
	<rect x="136" y="45" width="110" height="52" fill="none" rx="14" stroke="#de77ae" stroke-width="1.5"/>
	<line x1="136" y1="71" x2="246" y2="71" stroke="#de77ae" stroke-width="1"/>
	<text x="143" y="63.6" fill="#000000" font-family="Trebuchet MS" font-size="14">has certificate</text>
</g>

<!-- Association learn to play -->
<line x1="629" y1="211" x2="629" y2="71" stroke="#de77ae" stroke-width="1"/>
<text x="634.0" y="141" fill="#4d9221" font-family="Verdana" font-size="12">1,1</text>
<line x1="488" y1="71" x2="629" y2="71" stroke="#de77ae" stroke-width="1"/>
<text x="553" y="88.0" fill="#4d9221" font-family="Verdana" font-size="12">0,N</text>
<g id="association-learn to play">
	<path d="M 664 45 a 14 14 90 0 1 14 14 V 71 h -98 V 59 a 14 14 90 0 1 14 -14" fill="#f1b6da" stroke="#f1b6da" stroke-width="0"/>
	<path d="M 678 71.0 v 12 a 14 14 90 0 1 -14 14 H 594 a 14 14 90 0 1 -14 -14 V 71.0 H 98" fill="#fde0ef" stroke="#fde0ef" stroke-width="0"/>
	<rect x="580" y="45" width="98" height="52" fill="none" rx="14" stroke="#de77ae" stroke-width="1.5"/>
	<line x1="580" y1="71" x2="678" y2="71" stroke="#de77ae" stroke-width="1"/>
	<text x="587" y="63.6" fill="#000000" font-family="Trebuchet MS" font-size="14">learn to play</text>
</g>

<!-- Association teach/learn -->
<line x1="57" y1="324" x2="57" y2="211" stroke="#de77ae" stroke-width="1"/>
<text x="62.0" y="281" fill="#4d9221" font-family="Verdana" font-size="12">0,N</text>
<line x1="57" y1="71" x2="57" y2="211" stroke="#de77ae" stroke-width="1"/>
<text x="30.0" y="150" fill="#4d9221" font-family="Verdana" font-size="12">0,N</text>
<g id="association-teach/learn">
	<path d="M 89 185 a 14 14 90 0 1 14 14 V 211 h -92 V 199 a 14 14 90 0 1 14 -14" fill="#f1b6da" stroke="#f1b6da" stroke-width="0"/>
	<path d="M 103 211.0 v 12 a 14 14 90 0 1 -14 14 H 25 a 14 14 90 0 1 -14 -14 V 211.0 H 92" fill="#fde0ef" stroke="#fde0ef" stroke-width="0"/>
	<rect x="11" y="185" width="92" height="52" fill="none" rx="14" stroke="#de77ae" stroke-width="1.5"/>
	<line x1="11" y1="211" x2="103" y2="211" stroke="#de77ae" stroke-width="1"/>
	<text x="18" y="203.6" fill="#000000" font-family="Trebuchet MS" font-size="14">teach/learn</text>
</g>

<!-- Association will teach -->
<line x1="629" y1="211" x2="629" y2="324" stroke="#de77ae" stroke-width="1"/>
<text x="634.0" y="290" fill="#4d9221" font-family="Verdana" font-size="12">1,1</text>
<line x1="488" y1="324" x2="629" y2="324" stroke="#de77ae" stroke-width="1"/>
<text x="528" y="341.0" fill="#4d9221" font-family="Verdana" font-size="12">0,N</text>
<g id="association-will teach">
	<path d="M 655 298 a 14 14 90 0 1 14 14 V 324 h -80 V 312 a 14 14 90 0 1 14 -14" fill="#f1b6da" stroke="#f1b6da" stroke-width="0"/>
	<path d="M 669 324.0 v 12 a 14 14 90 0 1 -14 14 H 603 a 14 14 90 0 1 -14 -14 V 324.0 H 80" fill="#fde0ef" stroke="#fde0ef" stroke-width="0"/>
	<rect x="589" y="298" width="80" height="52" fill="none" rx="14" stroke="#de77ae" stroke-width="1.5"/>
	<line x1="589" y1="324" x2="669" y2="324" stroke="#de77ae" stroke-width="1"/>
	<text x="596" y="316.6" fill="#000000" font-family="Trebuchet MS" font-size="14">will teach</text>
</g>

<!-- Association has -->
<line x1="191" y1="324" x2="191" y2="211" stroke="#de77ae" stroke-width="1"/>
<text x="196.0" y="254" fill="#4d9221" font-family="Verdana" font-size="12">0,1</text>
<line x1="57" y1="71" x2="191" y2="211" stroke="#de77ae" stroke-width="1"/>
<text x="109" y="118.956554092" fill="#4d9221" font-family="Verdana" font-size="12">1,1</text>
<g id="association-has">
	<path d="M 195 185 a 14 14 90 0 1 14 14 V 211 h -36 V 199 a 14 14 90 0 1 14 -14" fill="#f1b6da" stroke="#f1b6da" stroke-width="0"/>
	<path d="M 209 211.0 v 12 a 14 14 90 0 1 -14 14 H 187 a 14 14 90 0 1 -14 -14 V 211.0 H 36" fill="#fde0ef" stroke="#fde0ef" stroke-width="0"/>
	<rect x="173" y="185" width="36" height="52" fill="none" rx="14" stroke="#de77ae" stroke-width="1.5"/>
	<line x1="173" y1="211" x2="209" y2="211" stroke="#de77ae" stroke-width="1"/>
	<text x="180" y="203.6" fill="#000000" font-family="Trebuchet MS" font-size="14">has</text>
</g>

<!-- Association is -->
<line x1="488" y1="324" x2="337" y2="324" stroke="#de77ae" stroke-width="1"/>
<text x="426" y="341.0" fill="#4d9221" font-family="Verdana" font-size="12">     </text>
<line x1="191" y1="324" x2="337" y2="324" stroke="#de77ae" stroke-width="1"/>
<text x="234" y="341.0" fill="#4d9221" font-family="Verdana" font-size="12">     </text>
<line x1="337" y1="211" x2="337" y2="324" stroke="#de77ae" stroke-width="1"/>
<text x="342.0" y="245" fill="#4d9221" font-family="Verdana" font-size="12">     </text>
<g id="association-is">
	<path d="M 336 298 a 14 14 90 0 1 14 14 V 324 h -26 V 312 a 14 14 90 0 1 14 -14" fill="#f1b6da" stroke="#f1b6da" stroke-width="0"/>
	<path d="M 350 324.0 v 12 a 14 14 90 0 1 -14 14 H 338 a 14 14 90 0 1 -14 -14 V 324.0 H 26" fill="#fde0ef" stroke="#fde0ef" stroke-width="0"/>
	<rect x="324" y="298" width="26" height="52" fill="none" rx="14" stroke="#de77ae" stroke-width="1.5"/>
	<line x1="324" y1="324" x2="350" y2="324" stroke="#de77ae" stroke-width="1"/>
	<text x="331" y="316.6" fill="#000000" font-family="Trebuchet MS" font-size="14">is</text>
</g>

<!-- Entity PROFILE -->
<g id="entity-PROFILE">
	<g id="frame-PROFILE">
		<rect x="10" y="9" width="94" height="26" fill="#b8e186" stroke="#b8e186" stroke-width="0"/>
		<rect x="10" y="35.0" width="94" height="98" fill="#e6f5d0" stroke="#e6f5d0" stroke-width="0"/>
		<rect x="10" y="9" width="94" height="124" fill="none" stroke="#7fbc41" stroke-width="1.5"/>
		<line x1="10" y1="35" x2="104" y2="35" stroke="#7fbc41" stroke-width="1"/>
	</g>
	<text x="30" y="27.6" fill="#000000" font-family="Trebuchet MS" font-size="14">PROFILE</text>
	<text x="15" y="53.6" fill="#000000" font-family="Trebuchet MS" font-size="14">profile_code</text>
	<line x1="15" y1="56.0" x2="97" y2="56.0" stroke="#000000" stroke-width="1"/>
	<text x="15" y="71.6" fill="#000000" font-family="Trebuchet MS" font-size="14">certificate</text>
	<text x="15" y="89.6" fill="#000000" font-family="Trebuchet MS" font-size="14">presentation</text>
	<text x="15" y="107.6" fill="#000000" font-family="Trebuchet MS" font-size="14">avatar</text>
	<text x="15" y="125.6" fill="#000000" font-family="Trebuchet MS" font-size="14">is_teacher</text>
</g>

<!-- Entity CERTIFICATE -->
<g id="entity-CERTIFICATE">
	<g id="frame-CERTIFICATE">
		<rect x="278" y="36" width="118" height="26" fill="#b8e186" stroke="#b8e186" stroke-width="0"/>
		<rect x="278" y="62.0" width="118" height="44" fill="#e6f5d0" stroke="#e6f5d0" stroke-width="0"/>
		<rect x="278" y="36" width="118" height="70" fill="none" stroke="#7fbc41" stroke-width="1.5"/>
		<line x1="278" y1="62" x2="396" y2="62" stroke="#7fbc41" stroke-width="1"/>
	</g>
	<text x="295" y="54.6" fill="#000000" font-family="Trebuchet MS" font-size="14">CERTIFICATE</text>
	<text x="283" y="80.6" fill="#000000" font-family="Trebuchet MS" font-size="14">certificate_code</text>
	<line x1="283" y1="83.0" x2="390" y2="83.0" stroke="#000000" stroke-width="1"/>
	<text x="283" y="98.6" fill="#000000" font-family="Trebuchet MS" font-size="14">name</text>
</g>

<!-- Entity INSTRUMENT -->
<g id="entity-INSTRUMENT">
	<g id="frame-INSTRUMENT">
		<rect x="428" y="18" width="120" height="26" fill="#b8e186" stroke="#b8e186" stroke-width="0"/>
		<rect x="428" y="44.0" width="120" height="80" fill="#e6f5d0" stroke="#e6f5d0" stroke-width="0"/>
		<rect x="428" y="18" width="120" height="106" fill="none" stroke="#7fbc41" stroke-width="1.5"/>
		<line x1="428" y1="44" x2="548" y2="44" stroke="#7fbc41" stroke-width="1"/>
	</g>
	<text x="447" y="36.6" fill="#000000" font-family="Trebuchet MS" font-size="14">INSTRUMENT</text>
	<text x="433" y="62.6" fill="#000000" font-family="Trebuchet MS" font-size="14">instrument_code</text>
	<line x1="433" y1="65.0" x2="542" y2="65.0" stroke="#000000" stroke-width="1"/>
	<text x="433" y="80.6" fill="#000000" font-family="Trebuchet MS" font-size="14">name</text>
	<text x="433" y="98.6" fill="#000000" font-family="Trebuchet MS" font-size="14">decsription</text>
	<text x="433" y="116.6" fill="#000000" font-family="Trebuchet MS" font-size="14">picture</text>
</g>

<!-- Entity USER -->
<g id="entity-USER">
	<g id="frame-USER">
		<rect x="153" y="262" width="76" height="26" fill="#b8e186" stroke="#b8e186" stroke-width="0"/>
		<rect x="153" y="288.0" width="76" height="98" fill="#e6f5d0" stroke="#e6f5d0" stroke-width="0"/>
		<rect x="153" y="262" width="76" height="124" fill="none" stroke="#7fbc41" stroke-width="1.5"/>
		<line x1="153" y1="288" x2="229" y2="288" stroke="#7fbc41" stroke-width="1"/>
	</g>
	<text x="174" y="280.6" fill="#000000" font-family="Trebuchet MS" font-size="14">USER</text>
	<text x="158" y="306.6" fill="#000000" font-family="Trebuchet MS" font-size="14">user_code</text>
	<line x1="158" y1="309.0" x2="224" y2="309.0" stroke="#000000" stroke-width="1"/>
	<text x="158" y="324.6" fill="#000000" font-family="Trebuchet MS" font-size="14">email</text>
	<text x="158" y="342.6" fill="#000000" font-family="Trebuchet MS" font-size="14">password</text>
	<text x="158" y="360.6" fill="#000000" font-family="Trebuchet MS" font-size="14">firstname</text>
	<text x="158" y="378.6" fill="#000000" font-family="Trebuchet MS" font-size="14">lastname</text>
</g>

<!-- Entity STUDENT -->
<g id="entity-STUDENT">
	<g id="frame-STUDENT">
		<rect x="302" y="194" width="70" height="26" fill="#b8e186" stroke="#b8e186" stroke-width="0"/>
		<rect x="302" y="220.0" width="70" height="8" fill="#e6f5d0" stroke="#e6f5d0" stroke-width="0"/>
		<rect x="302" y="194" width="70" height="34" fill="none" stroke="#7fbc41" stroke-width="1.5"/>
		<line x1="302" y1="220" x2="372" y2="220" stroke="#7fbc41" stroke-width="1"/>
	</g>
	<text x="307" y="212.6" fill="#000000" font-family="Trebuchet MS" font-size="14">STUDENT</text>
</g>

<!-- Entity MUSIC_STYLE -->
<g id="entity-MUSIC_STYLE">
	<g id="frame-MUSIC_STYLE">
		<rect x="9" y="289" width="96" height="26" fill="#b8e186" stroke="#b8e186" stroke-width="0"/>
		<rect x="9" y="315.0" width="96" height="44" fill="#e6f5d0" stroke="#e6f5d0" stroke-width="0"/>
		<rect x="9" y="289" width="96" height="70" fill="none" stroke="#7fbc41" stroke-width="1.5"/>
		<line x1="9" y1="315" x2="105" y2="315" stroke="#7fbc41" stroke-width="1"/>
	</g>
	<text x="14" y="307.6" fill="#000000" font-family="Trebuchet MS" font-size="14">MUSIC_STYLE</text>
	<text x="14" y="333.6" fill="#000000" font-family="Trebuchet MS" font-size="14">type_code</text>
	<line x1="14" y1="336.0" x2="82" y2="336.0" stroke="#000000" stroke-width="1"/>
	<text x="14" y="351.6" fill="#000000" font-family="Trebuchet MS" font-size="14">name</text>
</g>

<!-- Entity LESSON -->
<g id="entity-LESSON">
	<g id="frame-LESSON">
		<rect x="568" y="149" width="122" height="26" fill="#b8e186" stroke="#b8e186" stroke-width="0"/>
		<rect x="568" y="175.0" width="122" height="98" fill="#e6f5d0" stroke="#e6f5d0" stroke-width="0"/>
		<rect x="568" y="149" width="122" height="124" fill="none" stroke="#7fbc41" stroke-width="1.5"/>
		<line x1="568" y1="175" x2="690" y2="175" stroke="#7fbc41" stroke-width="1"/>
	</g>
	<text x="604" y="167.6" fill="#000000" font-family="Trebuchet MS" font-size="14">LESSON</text>
	<text x="573" y="193.6" fill="#000000" font-family="Trebuchet MS" font-size="14">appointment</text>
	<line x1="573" y1="196.0" x2="656" y2="196.0" stroke="#000000" stroke-width="1"/>
	<text x="573" y="211.6" fill="#000000" font-family="Trebuchet MS" font-size="14">status</text>
	<text x="573" y="229.6" fill="#000000" font-family="Trebuchet MS" font-size="14">email_student</text>
	<text x="573" y="247.6" fill="#000000" font-family="Trebuchet MS" font-size="14">student_message</text>
	<text x="573" y="265.6" fill="#000000" font-family="Trebuchet MS" font-size="14">teacher_message</text>
</g>

<!-- Entity TEACHER -->
<g id="entity-TEACHER">
	<g id="frame-TEACHER">
		<rect x="453" y="307" width="70" height="26" fill="#b8e186" stroke="#b8e186" stroke-width="0"/>
		<rect x="453" y="333.0" width="70" height="8" fill="#e6f5d0" stroke="#e6f5d0" stroke-width="0"/>
		<rect x="453" y="307" width="70" height="34" fill="none" stroke="#7fbc41" stroke-width="1.5"/>
		<line x1="453" y1="333" x2="523" y2="333" stroke="#7fbc41" stroke-width="1"/>
	</g>
	<text x="458" y="325.6" fill="#000000" font-family="Trebuchet MS" font-size="14">TEACHER</text>
</g>
</svg>